<mxfile host="65bd71144e">
    <diagram name="Seite-1" id="DjCrLJOEe4nHxTjUXNSd">
        <mxGraphModel dx="962" dy="526" grid="1" gridSize="10" guides="1" tooltips="1" connect="1" arrows="1" fold="1" page="1" pageScale="1" pageWidth="827" pageHeight="1169" math="0" shadow="0">
            <root>
                <mxCell id="0"/>
                <mxCell id="1" parent="0"/>
                <mxCell id="sU0O0qOnpkfrYUOIyIDh-27" value=":DataBroker" style="shape=umlLifeline;perimeter=lifelinePerimeter;whiteSpace=wrap;html=1;container=1;collapsible=0;recursiveResize=0;outlineConnect=0;rounded=1;" parent="1" vertex="1">
                    <mxGeometry x="40" y="40" width="100" height="550" as="geometry"/>
                </mxCell>
                <mxCell id="56O69Gt65AHP2GdqeosO-17" value="" style="html=1;points=[[0,0,0,0,5],[0,1,0,0,-5],[1,0,0,0,5],[1,1,0,0,-5]];perimeter=orthogonalPerimeter;outlineConnect=0;targetShapes=umlLifeline;portConstraint=eastwest;newEdgeStyle={&quot;curved&quot;:0,&quot;rounded&quot;:0};" parent="sU0O0qOnpkfrYUOIyIDh-27" vertex="1">
                    <mxGeometry x="45" y="180" width="10" height="330" as="geometry"/>
                </mxCell>
                <mxCell id="sU0O0qOnpkfrYUOIyIDh-39" value=":Provider" style="shape=umlLifeline;perimeter=lifelinePerimeter;whiteSpace=wrap;html=1;container=1;collapsible=0;recursiveResize=0;outlineConnect=0;rounded=1;" parent="1" vertex="1">
                    <mxGeometry x="565" y="40" width="100" height="550" as="geometry"/>
                </mxCell>
                <mxCell id="56O69Gt65AHP2GdqeosO-8" value="" style="html=1;points=[[0,0,0,0,5],[0,1,0,0,-5],[1,0,0,0,5],[1,1,0,0,-5]];perimeter=orthogonalPerimeter;outlineConnect=0;targetShapes=umlLifeline;portConstraint=eastwest;newEdgeStyle={&quot;curved&quot;:0,&quot;rounded&quot;:0};" parent="sU0O0qOnpkfrYUOIyIDh-39" vertex="1">
                    <mxGeometry x="45" y="80" width="10" height="430" as="geometry"/>
                </mxCell>
                <mxCell id="56O69Gt65AHP2GdqeosO-18" value="" style="html=1;points=[[0,0,0,0,5],[0,1,0,0,-5],[1,0,0,0,5],[1,1,0,0,-5]];perimeter=orthogonalPerimeter;outlineConnect=0;targetShapes=umlLifeline;portConstraint=eastwest;newEdgeStyle={&quot;curved&quot;:0,&quot;rounded&quot;:0};" parent="sU0O0qOnpkfrYUOIyIDh-39" vertex="1">
                    <mxGeometry x="40" y="180" width="10" height="330" as="geometry"/>
                </mxCell>
                <mxCell id="F12XuqrCXp2MlrNHf4EK-3" value="" style="endArrow=classic;html=1;rounded=0;" parent="sU0O0qOnpkfrYUOIyIDh-39" edge="1">
                    <mxGeometry relative="1" as="geometry">
                        <mxPoint x="279" y="280" as="sourcePoint"/>
                        <mxPoint x="55" y="280" as="targetPoint"/>
                    </mxGeometry>
                </mxCell>
                <mxCell id="F12XuqrCXp2MlrNHf4EK-4" value="recv_data_frame()" style="edgeLabel;resizable=0;html=1;;align=center;verticalAlign=middle;" parent="F12XuqrCXp2MlrNHf4EK-3" connectable="0" vertex="1">
                    <mxGeometry relative="1" as="geometry">
                        <mxPoint x="13" y="-10" as="offset"/>
                    </mxGeometry>
                </mxCell>
                <mxCell id="F12XuqrCXp2MlrNHf4EK-5" value="" style="endArrow=classic;html=1;rounded=0;" parent="sU0O0qOnpkfrYUOIyIDh-39" edge="1">
                    <mxGeometry relative="1" as="geometry">
                        <mxPoint x="279" y="379" as="sourcePoint"/>
                        <mxPoint x="55" y="379" as="targetPoint"/>
                    </mxGeometry>
                </mxCell>
                <mxCell id="F12XuqrCXp2MlrNHf4EK-6" value="recv_data_frame()" style="edgeLabel;resizable=0;html=1;;align=center;verticalAlign=middle;" parent="F12XuqrCXp2MlrNHf4EK-5" connectable="0" vertex="1">
                    <mxGeometry relative="1" as="geometry">
                        <mxPoint x="13" y="-10" as="offset"/>
                    </mxGeometry>
                </mxCell>
                <mxCell id="F12XuqrCXp2MlrNHf4EK-11" value="" style="endArrow=classic;html=1;rounded=0;" parent="sU0O0qOnpkfrYUOIyIDh-39" edge="1">
                    <mxGeometry width="50" height="50" relative="1" as="geometry">
                        <mxPoint x="40.2222222222224" y="181" as="sourcePoint"/>
                        <mxPoint x="40.00000000000023" y="181" as="targetPoint"/>
                        <Array as="points">
                            <mxPoint x="55" y="181"/>
                        </Array>
                    </mxGeometry>
                </mxCell>
                <mxCell id="56O69Gt65AHP2GdqeosO-2" value=":Vehicle Network" style="shape=umlLifeline;perimeter=lifelinePerimeter;whiteSpace=wrap;html=1;container=1;collapsible=0;recursiveResize=0;outlineConnect=0;rounded=1;" parent="1" vertex="1">
                    <mxGeometry x="798" y="40" width="100" height="550" as="geometry"/>
                </mxCell>
                <mxCell id="56O69Gt65AHP2GdqeosO-5" value="" style="html=1;points=[[0,0,0,0,5],[0,1,0,0,-5],[1,0,0,0,5],[1,1,0,0,-5]];perimeter=orthogonalPerimeter;outlineConnect=0;targetShapes=umlLifeline;portConstraint=eastwest;newEdgeStyle={&quot;curved&quot;:0,&quot;rounded&quot;:0};" parent="56O69Gt65AHP2GdqeosO-2" vertex="1">
                    <mxGeometry x="46" y="80" width="10" height="430" as="geometry"/>
                </mxCell>
                <mxCell id="3" value="" style="shape=curlyBracket;whiteSpace=wrap;html=1;rounded=1;flipH=1;labelPosition=right;verticalLabelPosition=middle;align=left;verticalAlign=middle;" parent="56O69Gt65AHP2GdqeosO-2" vertex="1">
                    <mxGeometry x="56" y="80" width="20" height="100" as="geometry"/>
                </mxCell>
                <mxCell id="56O69Gt65AHP2GdqeosO-24" value="" style="endArrow=classic;html=1;rounded=0;" parent="1" edge="1">
                    <mxGeometry relative="1" as="geometry">
                        <mxPoint x="605" y="221" as="sourcePoint"/>
                        <mxPoint x="95" y="221" as="targetPoint"/>
                    </mxGeometry>
                </mxCell>
                <mxCell id="56O69Gt65AHP2GdqeosO-25" value="OpenProviderStream(&lt;b&gt;&lt;font color=&quot;#007fff&quot;&gt;stream&lt;/font&gt;&lt;/b&gt;&amp;nbsp;OpenProviderStreamRequest=PublishValuesRequest(signal_values))" style="edgeLabel;resizable=0;html=1;;align=center;verticalAlign=middle;" parent="56O69Gt65AHP2GdqeosO-24" connectable="0" vertex="1">
                    <mxGeometry relative="1" as="geometry">
                        <mxPoint y="-8" as="offset"/>
                    </mxGeometry>
                </mxCell>
                <mxCell id="56O69Gt65AHP2GdqeosO-26" value="" style="endArrow=classic;html=1;rounded=0;" parent="1" edge="1">
                    <mxGeometry relative="1" as="geometry">
                        <mxPoint x="95" y="240" as="sourcePoint"/>
                        <mxPoint x="606" y="240" as="targetPoint"/>
                    </mxGeometry>
                </mxCell>
                <mxCell id="56O69Gt65AHP2GdqeosO-27" value="&lt;b&gt;&lt;font color=&quot;#007fff&quot;&gt;stream&lt;/font&gt;&lt;/b&gt;&amp;nbsp;OpenProviderStreamResponse=PublishValuesResponse" style="edgeLabel;resizable=0;html=1;;align=center;verticalAlign=middle;" parent="56O69Gt65AHP2GdqeosO-26" connectable="0" vertex="1">
                    <mxGeometry relative="1" as="geometry">
                        <mxPoint y="-8" as="offset"/>
                    </mxGeometry>
                </mxCell>
                <mxCell id="56O69Gt65AHP2GdqeosO-36" value="" style="endArrow=classic;html=1;rounded=0;" parent="1" source="56O69Gt65AHP2GdqeosO-2" edge="1">
                    <mxGeometry relative="1" as="geometry">
                        <mxPoint x="770" y="120" as="sourcePoint"/>
                        <mxPoint x="620" y="120" as="targetPoint"/>
                    </mxGeometry>
                </mxCell>
                <mxCell id="56O69Gt65AHP2GdqeosO-37" value="recv_data_frame()" style="edgeLabel;resizable=0;html=1;;align=center;verticalAlign=middle;" parent="56O69Gt65AHP2GdqeosO-36" connectable="0" vertex="1">
                    <mxGeometry relative="1" as="geometry">
                        <mxPoint x="13" y="-10" as="offset"/>
                    </mxGeometry>
                </mxCell>
                <mxCell id="56O69Gt65AHP2GdqeosO-38" value="" style="endArrow=classic;html=1;rounded=0;" parent="1" edge="1">
                    <mxGeometry relative="1" as="geometry">
                        <mxPoint x="604" y="320" as="sourcePoint"/>
                        <mxPoint x="94" y="320" as="targetPoint"/>
                    </mxGeometry>
                </mxCell>
                <mxCell id="56O69Gt65AHP2GdqeosO-39" value="&lt;b&gt;&lt;font color=&quot;#007fff&quot;&gt;stream&lt;/font&gt;&lt;/b&gt;&amp;nbsp;OpenProviderStreamRequest=PublishValuesRequest(signal_values)" style="edgeLabel;resizable=0;html=1;;align=center;verticalAlign=middle;" parent="56O69Gt65AHP2GdqeosO-38" connectable="0" vertex="1">
                    <mxGeometry relative="1" as="geometry">
                        <mxPoint y="-8" as="offset"/>
                    </mxGeometry>
                </mxCell>
                <mxCell id="56O69Gt65AHP2GdqeosO-40" value="" style="endArrow=classic;html=1;rounded=0;" parent="1" edge="1">
                    <mxGeometry relative="1" as="geometry">
                        <mxPoint x="95" y="340" as="sourcePoint"/>
                        <mxPoint x="606" y="340" as="targetPoint"/>
                    </mxGeometry>
                </mxCell>
                <mxCell id="56O69Gt65AHP2GdqeosO-41" value="&lt;b&gt;&lt;font color=&quot;#007fff&quot;&gt;stream&lt;/font&gt;&lt;/b&gt;&amp;nbsp;OpenProviderStreamResponse=PublishValuesResponse" style="edgeLabel;resizable=0;html=1;;align=center;verticalAlign=middle;" parent="56O69Gt65AHP2GdqeosO-40" connectable="0" vertex="1">
                    <mxGeometry relative="1" as="geometry">
                        <mxPoint y="-8" as="offset"/>
                    </mxGeometry>
                </mxCell>
                <mxCell id="56O69Gt65AHP2GdqeosO-42" value="" style="endArrow=classic;html=1;rounded=0;" parent="1" edge="1">
                    <mxGeometry relative="1" as="geometry">
                        <mxPoint x="95.00000000000023" y="440" as="sourcePoint"/>
                        <mxPoint x="604.5" y="440" as="targetPoint"/>
                    </mxGeometry>
                </mxCell>
                <mxCell id="56O69Gt65AHP2GdqeosO-43" value="&lt;b&gt;&lt;font color=&quot;#007fff&quot;&gt;stream&lt;/font&gt;&lt;/b&gt;&amp;nbsp;OpenProviderStreamResponse=PublishValuesResponse" style="edgeLabel;resizable=0;html=1;;align=center;verticalAlign=middle;" parent="56O69Gt65AHP2GdqeosO-42" connectable="0" vertex="1">
                    <mxGeometry relative="1" as="geometry">
                        <mxPoint y="-8" as="offset"/>
                    </mxGeometry>
                </mxCell>
                <mxCell id="56O69Gt65AHP2GdqeosO-44" value="" style="endArrow=classic;html=1;rounded=0;fontColor=default;labelBackgroundColor=default;fontStyle=0;curved=0;strokeWidth=1;" parent="1" edge="1">
                    <mxGeometry relative="1" as="geometry">
                        <mxPoint x="610" y="419" as="sourcePoint"/>
                        <mxPoint x="95" y="419" as="targetPoint"/>
                    </mxGeometry>
                </mxCell>
                <mxCell id="56O69Gt65AHP2GdqeosO-45" value="&lt;b&gt;&lt;font color=&quot;#007fff&quot;&gt;stream&lt;/font&gt;&lt;/b&gt;&amp;nbsp;OpenProviderStreamRequest=PublishValuesRequest(signal_values)" style="edgeLabel;resizable=0;html=1;;align=center;verticalAlign=middle;" parent="56O69Gt65AHP2GdqeosO-44" connectable="0" vertex="1">
                    <mxGeometry relative="1" as="geometry">
                        <mxPoint y="-8" as="offset"/>
                    </mxGeometry>
                </mxCell>
                <mxCell id="56O69Gt65AHP2GdqeosO-47" value="" style="endArrow=classic;html=1;rounded=0;" parent="1" edge="1">
                    <mxGeometry relative="1" as="geometry">
                        <mxPoint x="605" y="520" as="sourcePoint"/>
                        <mxPoint x="94" y="520" as="targetPoint"/>
                    </mxGeometry>
                </mxCell>
                <mxCell id="56O69Gt65AHP2GdqeosO-48" value="&lt;b&gt;&lt;font color=&quot;#007fff&quot;&gt;stream&lt;/font&gt;&lt;/b&gt;&amp;nbsp;OpenProviderStreamRequest=PublishValuesRequest(signal_values)" style="edgeLabel;resizable=0;html=1;;align=center;verticalAlign=middle;" parent="56O69Gt65AHP2GdqeosO-47" connectable="0" vertex="1">
                    <mxGeometry relative="1" as="geometry">
                        <mxPoint y="-8" as="offset"/>
                    </mxGeometry>
                </mxCell>
                <mxCell id="56O69Gt65AHP2GdqeosO-49" value="" style="endArrow=classic;html=1;rounded=0;" parent="1" edge="1">
                    <mxGeometry relative="1" as="geometry">
                        <mxPoint x="95.00000000000023" y="539" as="sourcePoint"/>
                        <mxPoint x="604.5" y="539" as="targetPoint"/>
                    </mxGeometry>
                </mxCell>
                <mxCell id="56O69Gt65AHP2GdqeosO-50" value="&lt;b&gt;&lt;font color=&quot;#007fff&quot;&gt;stream&lt;/font&gt;&lt;/b&gt;&amp;nbsp;OpenProviderStreamResponse=PublishValuesResponse" style="edgeLabel;resizable=0;html=1;;align=center;verticalAlign=middle;" parent="56O69Gt65AHP2GdqeosO-49" connectable="0" vertex="1">
                    <mxGeometry relative="1" as="geometry">
                        <mxPoint y="-8" as="offset"/>
                    </mxGeometry>
                </mxCell>
                <mxCell id="F12XuqrCXp2MlrNHf4EK-1" value="" style="endArrow=classic;html=1;rounded=0;" parent="1" edge="1">
                    <mxGeometry relative="1" as="geometry">
                        <mxPoint x="844" y="221" as="sourcePoint"/>
                        <mxPoint x="620" y="221" as="targetPoint"/>
                    </mxGeometry>
                </mxCell>
                <mxCell id="F12XuqrCXp2MlrNHf4EK-2" value="recv_data_frame()" style="edgeLabel;resizable=0;html=1;;align=center;verticalAlign=middle;" parent="F12XuqrCXp2MlrNHf4EK-1" connectable="0" vertex="1">
                    <mxGeometry relative="1" as="geometry">
                        <mxPoint x="13" y="-10" as="offset"/>
                    </mxGeometry>
                </mxCell>
                <mxCell id="F12XuqrCXp2MlrNHf4EK-7" value="" style="endArrow=classic;html=1;rounded=0;" parent="1" edge="1">
                    <mxGeometry relative="1" as="geometry">
                        <mxPoint x="844" y="520" as="sourcePoint"/>
                        <mxPoint x="620" y="520" as="targetPoint"/>
                    </mxGeometry>
                </mxCell>
                <mxCell id="F12XuqrCXp2MlrNHf4EK-8" value="recv_data_frame()" style="edgeLabel;resizable=0;html=1;;align=center;verticalAlign=middle;" parent="F12XuqrCXp2MlrNHf4EK-7" connectable="0" vertex="1">
                    <mxGeometry relative="1" as="geometry">
                        <mxPoint x="13" y="-10" as="offset"/>
                    </mxGeometry>
                </mxCell>
                <mxCell id="F12XuqrCXp2MlrNHf4EK-10" value="cycle_time(ms)" style="text;html=1;align=center;verticalAlign=middle;whiteSpace=wrap;rounded=0;" parent="1" vertex="1">
                    <mxGeometry x="885" y="155" width="60" height="30" as="geometry"/>
                </mxCell>
                <mxCell id="F12XuqrCXp2MlrNHf4EK-12" value="" style="endArrow=classic;html=1;rounded=0;" parent="1" edge="1">
                    <mxGeometry width="50" height="50" relative="1" as="geometry">
                        <mxPoint x="604.2222222222224" y="320" as="sourcePoint"/>
                        <mxPoint x="604.0000000000002" y="320" as="targetPoint"/>
                        <Array as="points">
                            <mxPoint x="620" y="320"/>
                        </Array>
                    </mxGeometry>
                </mxCell>
                <mxCell id="F12XuqrCXp2MlrNHf4EK-13" value="" style="endArrow=classic;html=1;rounded=0;" parent="1" edge="1">
                    <mxGeometry width="50" height="50" relative="1" as="geometry">
                        <mxPoint x="604.2222222222224" y="419" as="sourcePoint"/>
                        <mxPoint x="604.0000000000002" y="419" as="targetPoint"/>
                        <Array as="points">
                            <mxPoint x="620" y="419"/>
                        </Array>
                    </mxGeometry>
                </mxCell>
                <mxCell id="F12XuqrCXp2MlrNHf4EK-14" value="" style="endArrow=classic;html=1;rounded=0;" parent="1" edge="1">
                    <mxGeometry width="50" height="50" relative="1" as="geometry">
                        <mxPoint x="605.2222222222224" y="520" as="sourcePoint"/>
                        <mxPoint x="605.0000000000002" y="520" as="targetPoint"/>
                        <Array as="points">
                            <mxPoint x="621" y="520"/>
                        </Array>
                    </mxGeometry>
                </mxCell>
            </root>
        </mxGraphModel>
    </diagram>
</mxfile>
